<?xml version="1.0" encoding="utf-8"?>
<!-- Generator: Adobe Illustrator 15.0.0, SVG Export Plug-In . SVG Version: 6.00 Build 0)  -->
<!DOCTYPE svg PUBLIC "-//W3C//DTD SVG 1.1//EN" "http://www.w3.org/Graphics/SVG/1.1/DTD/svg11.dtd">
<svg version="1.1" xmlns="http://www.w3.org/2000/svg" xmlns:xlink="http://www.w3.org/1999/xlink" x="0px" y="0px" width="512px"
	 height="512px" viewBox="0 0 512 512" enable-background="new 0 0 512 512" xml:space="preserve">
<g id="Tongue">
	<path fill="#9E005D" d="M486.022,299.157c-10.992,53.697-44.297,106.76-51.82,142.59c-71.078-48.053-9.655-150.166-178.892-177.934
		c-93.106-20.894-154.299-44.676-193.601-64.732c15.694-10.345,25.81-29.36-26.767-58.613c-23.635-12.83,4.051-31.063,9.454-33.088
		s88.46-34.438,139.781-49.294c51.321-14.856,207.983,10.129,260.654,70.903C497.503,189.763,497.503,243.109,486.022,299.157z"/>
	<path fill="#FFABAB" d="M479.022,285.157c-10.992,53.697-44.297,106.76-51.82,142.59c-71.078-48.053-9.655-150.166-178.892-177.934
		c-93.107-20.894-154.3-44.677-193.601-64.731c15.694-10.346,25.81-29.361-26.767-58.614c-23.635-12.83,4.051-31.063,9.454-33.088
		s88.46-34.438,139.781-49.294c51.321-14.856,207.983,10.129,260.654,70.903C490.503,175.764,490.503,229.109,479.022,285.157z"/>
</g>
<g id="Text">
	<g>
		<path fill="#FFFFFF" d="M156.097,296.25c0.71,0.426,0.994,1.277,0.284,2.271l-68.137,93.547c-0.709,0.993-1.419,1.277-2.271,0.567
			l-4.542-3.265c-0.71-0.568-0.568-1.42,0-2.13l67.853-93.404c0.71-0.993,1.42-0.993,1.988-0.71L156.097,296.25z"/>
		<path fill="#FFFFFF" d="M211.46,294.263c1.277,0,1.703,0.852,0.993,2.556l-28.391,79.635c-1.419,3.975-1.277,6.104,1.42,6.104
			c3.407,0,8.375-5.109,10.221-6.955c0.426-0.426,0.852-0.426,1.277,0l1.562,1.703c0.284,0.426,0.426,0.852,0,1.562
			c-0.567,0.993-11.498,13.06-26.545,13.06c-2.981,0-6.104-3.549-6.104-5.962s2.556-9.228,3.975-13.202l22.287-64.445
			c1.845-5.395,1.419-8.943-2.697-8.943h-4.116c-0.994,0-1.278-0.568-1.136-1.277l0.852-2.84c0.284-0.852,0.567-0.993,1.419-0.993
			H211.46z"/>
		<path fill="#FFFFFF" d="M296.633,296.25c0.71,0.426,0.994,1.277,0.284,2.271l-68.138,93.547c-0.71,0.993-1.419,1.277-2.271,0.567
			l-4.542-3.265c-0.71-0.568-0.567-1.42,0-2.13l67.854-93.404c0.71-0.993,1.419-0.993,1.987-0.71L296.633,296.25z"/>
	</g>
</g>
</svg>
