<?xml version="1.0" encoding="utf-8"?>
<!-- Generator: Adobe Illustrator 15.0.0, SVG Export Plug-In . SVG Version: 6.00 Build 0)  -->
<!DOCTYPE svg PUBLIC "-//W3C//DTD SVG 1.1//EN" "http://www.w3.org/Graphics/SVG/1.1/DTD/svg11.dtd">
<svg version="1.1" id="Icon" xmlns="http://www.w3.org/2000/svg" xmlns:xlink="http://www.w3.org/1999/xlink" x="0px" y="0px"
	 width="512px" height="512px" viewBox="0 0 512 512" enable-background="new 0 0 512 512" xml:space="preserve">
<path fill="#FFFFFF" d="M450.889,132.681c-55.944-64.551-222.342-91.089-276.853-75.31c-54.51,15.779-142.73,50.206-148.468,52.358
	c-5.738,2.152-35.144,21.517-10.041,35.145c55.844,31.07,45.1,51.268,28.43,62.256c41.744,21.301,106.74,46.562,205.633,68.754
	c179.753,29.494,114.514,137.953,190.01,188.992c7.99-38.058,43.365-94.418,55.04-151.452
	C506.835,253.894,506.835,197.233,450.889,132.681z M240.106,133.247l-72.372,99.36c-0.754,1.055-1.508,1.357-2.413,0.603
	l-4.825-3.468c-0.753-0.604-0.603-1.508,0-2.262l72.07-99.209c0.754-1.055,1.508-1.055,2.111-0.754l5.126,3.317
	C240.559,131.287,240.86,132.191,240.106,133.247z M299.663,131.576l-30.155,84.515c-1.507,4.221-1.356,6.448,1.508,6.448
	c3.62,0,8.896-5.444,10.856-7.405c0.452-0.452,0.905-0.461,1.356-0.009l1.659,1.805c0.301,0.453,0.452,0.901,0,1.656
	c-0.603,1.055-12.213,13.87-28.195,13.87c-3.167,0-6.484-3.769-6.484-6.333c0-2.563,2.715-9.802,4.222-14.023l23.672-68.526
	c1.959-5.729,1.507-9.575-2.864-9.575h-4.373c-1.056,0-1.357-0.528-1.206-1.28l0.905-2.841c0.301-0.904,0.603-0.879,1.506-0.879
	h26.538C299.965,129,300.417,129.767,299.663,131.576z M389.376,133.247l-72.372,99.36c-0.755,1.055-1.507,1.357-2.413,0.603
	l-4.823-3.468c-0.755-0.604-0.604-1.508,0-2.262l72.07-99.209c0.753-1.055,1.507-1.055,2.11-0.754l5.126,3.317
	C389.828,131.287,390.13,132.191,389.376,133.247z"/>
</svg>
